# xmcd CD database file
#
# Track frame offsets:
#	150
#	15072
#	29667
#	46542
#	65435
#	81637
#	92902
#	104830
#	117870
#	128870
#	139367
#	172377
#
# Disc length: 2747 seconds
#
# Revision: 1
# Processed by: cddbd v1.4PL0 Copyright (c) Steve Scherf et al.
# Submitted via: CDex 1.50beta9
#
DISCID=ab0ab90c
DTITLE=Armstrong, Louis  and the All Stars - The Complete Decca Studio Recordings - CD6
DYEAR=1993
DGENRE=Jazz
TTITLE0=You Rascal You
TTITLE1=Hobo, You Can't Ride This Train
TTITLE2=Knockin' A Jug
TTITLE3=Dear Old Southland
TTITLE4=See See Rider
TTITLE5=Reckless Blues
TTITLE6=Trouble in Mind
TTITLE7=Courthouse Blues
TTITLE8=I Love Jazz
TTITLE9=The Mardi-Gras March
TTITLE10=Basin Street Blues
TTITLE11=Otchi-Tchor-Ni-Ya
EXTD=YEAR: 1993
EXTT0=
EXTT1=
EXTT2=
EXTT3=
EXTT4=
EXTT5=
EXTT6=
EXTT7=
EXTT8=
EXTT9=
EXTT10=
EXTT11=
PLAYORDER=
